# xmcd CD database file
#
# Track frame offsets:
#	150
#	7532
#	20410
#	35518
#	48286
#	60687
#	73442
#
# Disc length: 1401 seconds
#
# Revision: 0
# Processed by: cddbd v1.5.2PL0 Copyright (c) Steve Scherf et al.
# Submitted via: CDex 1.70beta2
#
DISCID=53057707
DTITLE=Divers - Jazzmag n°612 - 03-2010 - Métamorphoses du blues
DYEAR=2010
DGENRE=Jazz
TTITLE0=Leroy Gary - Mama Lucy
TTITLE1=B.B.King - Every day I have the blues
TTITLE2=Louis Armstrong - West end blues
TTITLE3=Count Basie - Swingin' the blues
TTITLE4=Duke Ellington - Koko
TTITLE5=Charlie Parker - Blues for Alice
TTITLE6=John Coltrane - Mr.P.C.
EXTD=YEAR: 2010
EXTT0=
EXTT1=
EXTT2=
EXTT3=
EXTT4=
EXTT5=
EXTT6=
PLAYORDER=
